<?xml version="1.0" standalone="no"?>
<!DOCTYPE svg PUBLIC "-//W3C//DTD SVG 20010904//EN"
 "http://www.w3.org/TR/2001/REC-SVG-20010904/DTD/svg10.dtd">
<svg version="1.0" xmlns="http://www.w3.org/2000/svg"
 width="512.000000pt" height="512.000000pt" viewBox="0 0 512.000000 512.000000"
 preserveAspectRatio="xMidYMid meet">
<metadata>
Created by potrace 1.14, written by Peter Selinger 2001-2017
</metadata>
<g transform="translate(0.000000,512.000000) scale(0.100000,-0.100000)"
fill="#000000" stroke="none">
<path d="M376 4886 c-79 -23 -145 -106 -151 -190 -3 -50 24 -125 56 -158 58
-59 72 -63 246 -66 141 -3 163 -6 167 -20 4 -15 101 -461 112 -516 7 -35 145
-680 170 -796 27 -122 62 -288 70 -330 3 -14 9 -41 14 -60 5 -19 11 -47 14
-61 8 -48 108 -512 142 -662 26 -115 65 -213 110 -274 70 -95 181 -183 286
-224 116 -46 120 -46 1313 -44 l1130 1 70 23 c143 47 258 129 339 245 65 93
91 158 125 321 21 99 142 645 195 880 72 317 136 611 140 645 8 78 -41 166
-118 208 -29 16 -165 17 -1787 20 l-1757 2 -7 38 c-4 20 -9 48 -12 62 -2 14
-9 45 -14 70 -13 55 -18 78 -24 110 -3 14 -7 34 -9 45 -3 11 -21 97 -41 190
-19 94 -38 176 -40 184 -3 8 -8 30 -11 50 -3 20 -10 54 -16 76 -5 22 -12 50
-14 62 -8 42 -23 71 -56 108 -57 65 -73 69 -354 70 -150 1 -266 -3 -288 -9z
m4059 -1485 c6 -1 -26 -166 -77 -393 -48 -216 -89 -404 -92 -418 -2 -14 -13
-63 -25 -110 -11 -47 -22 -97 -25 -110 -2 -14 -9 -45 -15 -70 -5 -25 -12 -56
-15 -70 -37 -194 -69 -258 -149 -296 l-52 -24 -1090 0 c-1036 0 -1092 1 -1130
19 -49 22 -92 64 -110 108 -8 18 -23 78 -35 134 -11 56 -23 105 -24 108 -2 3
-7 22 -10 41 -4 27 -50 246 -71 340 -2 8 -10 49 -19 90 -9 41 -25 118 -36 170
-12 52 -25 115 -30 140 -5 25 -23 108 -39 184 -17 77 -31 143 -31 147 0 4 10
9 23 11 18 2 3019 1 3052 -1z"/>
<path d="M1620 1056 c-205 -43 -341 -217 -335 -427 4 -143 66 -258 183 -340
203 -142 502 -68 614 153 37 72 48 120 48 203 0 267 -247 466 -510 411z"/>
<path d="M3949 1053 c-279 -71 -409 -400 -254 -643 146 -228 483 -262 663 -66
86 93 123 192 118 314 -11 271 -266 462 -527 395z"/>
</g>
</svg>
